#N canvas 158 85 804 514 12;
#X obj 119 62 tgl 18 533260 \$1-1_get \$1-1_set empty 0 -6 192 8 -262144
-1 -1 0 1;
#X obj 94 62 tgl 18 533260 \$1-0_get \$1-0_set empty 0 -6 192 8 -233017
-1 -1 0 1;
#X obj 170 62 tgl 18 533260 \$1-3_get \$1-3_set empty 0 -6 192 8 -262144
-1 -1 0 1;
#X obj 145 62 tgl 18 533260 \$1-2_get \$1-2_set empty 0 -6 192 8 -262144
-1 -1 0 1;
#X obj 220 62 tgl 18 533260 \$1-5_get \$1-5_set empty 0 -6 192 8 -262144
-1 -1 0 1;
#X obj 195 62 tgl 18 533260 \$1-4_get \$1-4_set empty 0 -6 192 8 -233017
-1 -1 0 1;
#X obj 271 62 tgl 18 533260 \$1-7_get \$1-7_set empty 0 -6 192 8 -262144
-1 -1 0 1;
#X obj 246 62 tgl 18 533260 \$1-6_get \$1-6_set empty 0 -6 192 8 -262144
-1 -1 0 1;
#X obj 322 62 tgl 18 533260 \$1-9_get \$1-9_set empty 0 -6 192 8 -262144
-1 -1 0 1;
#X obj 297 62 tgl 18 533260 \$1-8_get \$1-8_set empty 0 -6 192 8 -233017
-1 -1 0 1;
#X obj 372 62 tgl 18 533390 \$1-11_get \$1-11_set empty 0 -6 192 8
-262144 -1 -1 0 1;
#X obj 347 62 tgl 18 533390 \$1-10_get \$1-10_set empty 0 -6 192 8
-262144 -1 -1 0 1;
#X obj 423 62 tgl 18 533390 \$1-13_get \$1-13_set empty 0 -6 192 8
-262144 -1 -1 0 1;
#X obj 397 62 tgl 18 533390 \$1-12_get \$1-12_set empty 0 -6 192 8
-233017 -1 -1 0 1;
#X obj 473 62 tgl 18 533390 \$1-15_get \$1-15_set empty 0 -6 192 8
-262144 -1 -1 0 1;
#X obj 448 62 tgl 18 533390 \$1-14_get \$1-14_set empty 0 -6 192 8
-262144 -1 -1 0 1;
#X floatatom 534 55 2 1 16 0 ch #1_chan_in #1_chan;
#X obj 750 81 tgl 15 533136 \$1_mute \$1_mute_in m 4 7 192 8 -206022
-262131 -1 0 1;
#X floatatom 673 55 3 0 127 0 vol vol_init #1_vol_snd;
#X msg 158 99 0;
#X msg 191 99 1;
#X msg 224 99 2;
#X msg 257 99 3;
#X obj 257 180 s index;
#X msg 290 99 4;
#X msg 321 99 5;
#X msg 354 99 6;
#X msg 388 99 7;
#X msg 158 124 8;
#X msg 191 124 9;
#X msg 224 124 10;
#X msg 257 124 11;
#X msg 289 124 12;
#X msg 321 124 13;
#X msg 354 124 14;
#X msg 387 124 15;
#X obj 90 3 r clr_ticks;
#X msg 90 30 0;
#X obj 102 176 bang;
#X obj 102 203 f \$1;
#X obj 29 267 spigot;
#X obj 65 142 r curr_row;
#X obj 65 229 ==;
#X obj 65 175 + 1;
#X obj 29 109 r key_ticks;
#X obj 193 4 select 1 2 3 4 5 6 7 8 9 10 11 12 13 14 15 16;
#X obj 457 100 rowlogic \$1;
#X floatatom 603 55 3 0 127 0 note #1_note_in #1_note;
#X obj 388 337 +;
#X obj 423 310 f -1;
#X obj 423 336 +;
#X obj 388 181 r key_ch;
#X obj 388 239 sel 93 91;
#X obj 388 181 r key_ch;
#X obj 442 273 r \$1_chan;
#X obj 388 373 s \$1_chan_in;
#X obj 388 310 f 1;
#X obj 517 310 sel 17;
#X obj 517 336 f 1;
#X obj 466 335 f 16;
#X obj 466 310 sel 0;
#X obj 388 210 spigot;
#X obj 476 182 r chan_init;
#X obj 616 310 f -1;
#X obj 616 336 +;
#X obj 710 336 f 1;
#X obj 659 335 f 16;
#X obj 659 310 sel 0;
#X obj 581 211 spigot;
#X obj 581 182 r key_note;
#X obj 581 373 s \$1_note_in;
#X obj 581 337 +;
#X obj 581 310 f 1;
#X obj 581 240 sel 39 59;
#X obj 635 274 r \$1_note;
#X obj 710 310 sel 127;
#X obj 669 182 r note_init;
#X obj 607 128 sel 109;
#X connect 0 0 20 0;
#X connect 1 0 19 0;
#X connect 2 0 22 0;
#X connect 3 0 21 0;
#X connect 4 0 25 0;
#X connect 5 0 24 0;
#X connect 6 0 27 0;
#X connect 7 0 26 0;
#X connect 8 0 29 0;
#X connect 9 0 28 0;
#X connect 10 0 31 0;
#X connect 11 0 30 0;
#X connect 12 0 33 0;
#X connect 13 0 32 0;
#X connect 14 0 35 0;
#X connect 15 0 34 0;
#X connect 19 0 23 0;
#X connect 20 0 23 0;
#X connect 21 0 23 0;
#X connect 22 0 23 0;
#X connect 24 0 23 0;
#X connect 25 0 23 0;
#X connect 26 0 23 0;
#X connect 27 0 23 0;
#X connect 28 0 23 0;
#X connect 29 0 23 0;
#X connect 30 0 23 0;
#X connect 31 0 23 0;
#X connect 32 0 23 0;
#X connect 33 0 23 0;
#X connect 34 0 23 0;
#X connect 35 0 23 0;
#X connect 36 0 37 0;
#X connect 37 0 1 0;
#X connect 37 0 0 0;
#X connect 37 0 3 0;
#X connect 37 0 2 0;
#X connect 37 0 5 0;
#X connect 37 0 4 0;
#X connect 37 0 7 0;
#X connect 37 0 6 0;
#X connect 37 0 9 0;
#X connect 37 0 8 0;
#X connect 37 0 11 0;
#X connect 37 0 10 0;
#X connect 37 0 13 0;
#X connect 37 0 12 0;
#X connect 37 0 15 0;
#X connect 37 0 14 0;
#X connect 38 0 39 0;
#X connect 39 0 42 1;
#X connect 40 0 45 0;
#X connect 41 0 38 0;
#X connect 41 0 43 0;
#X connect 42 0 40 1;
#X connect 42 0 61 1;
#X connect 42 0 68 1;
#X connect 43 0 42 0;
#X connect 44 0 40 0;
#X connect 45 0 1 0;
#X connect 45 1 0 0;
#X connect 45 2 3 0;
#X connect 45 3 2 0;
#X connect 45 4 5 0;
#X connect 45 5 4 0;
#X connect 45 6 7 0;
#X connect 45 7 6 0;
#X connect 45 8 9 0;
#X connect 45 9 8 0;
#X connect 45 10 11 0;
#X connect 45 11 10 0;
#X connect 45 12 13 0;
#X connect 45 13 12 0;
#X connect 45 14 15 0;
#X connect 45 15 14 0;
#X connect 48 0 55 0;
#X connect 49 0 50 0;
#X connect 50 0 55 0;
#X connect 52 0 56 0;
#X connect 52 1 49 0;
#X connect 53 0 61 0;
#X connect 54 0 50 1;
#X connect 54 0 48 1;
#X connect 54 0 57 0;
#X connect 54 0 60 0;
#X connect 56 0 48 0;
#X connect 57 0 58 0;
#X connect 58 0 55 0;
#X connect 59 0 55 0;
#X connect 60 0 59 0;
#X connect 61 0 52 0;
#X connect 61 0 77 0;
#X connect 62 0 55 0;
#X connect 63 0 64 0;
#X connect 64 0 70 0;
#X connect 65 0 70 0;
#X connect 66 0 70 0;
#X connect 67 0 66 0;
#X connect 68 0 73 0;
#X connect 69 0 68 0;
#X connect 71 0 70 0;
#X connect 72 0 71 0;
#X connect 73 0 72 0;
#X connect 73 1 63 0;
#X connect 74 0 64 1;
#X connect 74 0 67 0;
#X connect 74 0 71 1;
#X connect 74 0 75 0;
#X connect 75 0 65 0;
#X connect 76 0 70 0;
#X connect 77 0 17 0;
#X coords 0 0 1 1 636 22 1;
