#N canvas 81 94 637 374 12;
#N canvas 0 0 454 304 graph7 0;
#X array \$1-seqdata 128 float 0;
#X coords 0 1 127 0 200 140 1;
#X restore 333 34 graph;
#N canvas 101 169 541 327 writedata 0;
#X obj 326 13 r index;
#X obj 166 242 tabwrite \$1-seqdata;
#X obj 326 43 +;
#X obj 144 73 r \$1-1_get;
#X obj 56 73 r \$1-0_get;
#X obj 232 73 r \$1-2_get;
#X obj 56 99 r \$1-4_get;
#X obj 338 73 r \$1-3_get;
#X obj 144 99 r \$1-5_get;
#X obj 232 99 r \$1-6_get;
#X obj 338 99 r \$1-7_get;
#X obj 56 125 r \$1-8_get;
#X obj 144 125 r \$1-9_get;
#X obj 232 125 r \$1-10_get;
#X obj 338 125 r \$1-11_get;
#X obj 56 151 r \$1-12_get;
#X obj 149 151 r \$1-13_get;
#X obj 244 151 r \$1-14_get;
#X obj 338 151 r \$1-15_get;
#X obj 56 13 r curr_edit_patt;
#X obj 56 43 * 16;
#X connect 0 0 2 0;
#X connect 2 0 1 1;
#X connect 3 0 1 0;
#X connect 4 0 1 0;
#X connect 5 0 1 0;
#X connect 6 0 1 0;
#X connect 7 0 1 0;
#X connect 8 0 1 0;
#X connect 9 0 1 0;
#X connect 10 0 1 0;
#X connect 11 0 1 0;
#X connect 12 0 1 0;
#X connect 13 0 1 0;
#X connect 14 0 1 0;
#X connect 15 0 1 0;
#X connect 16 0 1 0;
#X connect 17 0 1 0;
#X connect 18 0 1 0;
#X connect 19 0 20 0;
#X connect 20 0 2 1;
#X restore 157 67 pd writedata;
#N canvas 0 0 464 314 playread 0;
#X obj 31 16 inlet;
#X obj 31 198 outlet;
#X obj 90 16 r \$1_mute;
#X obj 90 42 != 1;
#X obj 31 42 spigot;
#X obj 171 16 r pattern;
#X obj 171 42 * 16;
#X obj 90 69 +;
#X obj 90 96 tabread \$1-seqdata;
#X obj 31 129 &&;
#X obj 31 86 f 1;
#X obj 31 160 sel 1;
#X connect 0 0 4 0;
#X connect 2 0 3 0;
#X connect 3 0 4 1;
#X connect 4 0 10 0;
#X connect 4 0 7 0;
#X connect 5 0 6 0;
#X connect 6 0 7 1;
#X connect 7 0 8 0;
#X connect 8 0 9 1;
#X connect 9 0 11 0;
#X connect 10 0 9 0;
#X connect 11 0 1 0;
#X restore 44 67 pd playread;
#N canvas 0 0 693 477 editread 0;
#X obj 77 119 until;
#X obj 77 152 f;
#X obj 108 153 + 1;
#X obj 150 152 sel 0;
#X obj 77 54 t b f;
#X obj 90 180 + 0;
#X obj 90 230 t f f;
#X obj 90 319 pack f f;
#X obj 77 86 delay 15;
#X text 179 80 <-- the delay is to make sure we dont;
#X text 155 92 write over the currently selected Op;
#N canvas 0 0 488 338 set_ticks 0;
#X obj 50 10 inlet;
#X obj 62 51 route 0 1 2 3 4 5 6 7 8 9 10 11 12 13 14 15;
#X obj 62 82 s \$1-0_set;
#X obj 151 83 s \$1-1_set;
#X obj 241 84 s \$1-2_set;
#X obj 341 82 s \$1-3_set;
#X obj 62 116 s \$1-4_set;
#X obj 151 112 s \$1-5_set;
#X obj 241 113 s \$1-6_set;
#X obj 341 111 s \$1-7_set;
#X obj 62 145 s \$1-8_set;
#X obj 151 141 s \$1-9_set;
#X obj 241 142 s \$1-10_set;
#X obj 341 140 s \$1-11_set;
#X obj 62 174 s \$1-12_set;
#X obj 151 170 s \$1-13_set;
#X obj 241 171 s \$1-14_set;
#X obj 341 169 s \$1-15_set;
#X connect 0 0 1 0;
#X connect 1 0 2 0;
#X connect 1 1 3 0;
#X connect 1 2 4 0;
#X connect 1 3 5 0;
#X connect 1 4 6 0;
#X connect 1 5 7 0;
#X connect 1 6 8 0;
#X connect 1 7 9 0;
#X connect 1 8 10 0;
#X connect 1 9 11 0;
#X connect 1 10 12 0;
#X connect 1 11 13 0;
#X connect 1 12 14 0;
#X connect 1 13 15 0;
#X connect 1 14 16 0;
#X connect 1 15 17 0;
#X restore 90 384 pd set_ticks;
#X obj 93 19 * 16;
#X obj 149 292 tabread \$1-seqdata;
#X obj 59 271 mod 16;
#X floatatom 213 245 5 0 0 0 - - -;
#X obj 150 118 mod 16;
#X obj 93 -12 r curr_edit_patt;
#X text 219 124 this subpatch was taken largely from mallen's (excellent)
patch MA_FM;
#X connect 0 0 1 0;
#X connect 1 0 2 0;
#X connect 1 0 5 0;
#X connect 2 0 16 0;
#X connect 3 0 0 1;
#X connect 4 0 8 0;
#X connect 4 1 5 1;
#X connect 5 0 6 0;
#X connect 6 0 14 0;
#X connect 6 1 13 0;
#X connect 6 1 15 0;
#X connect 7 0 11 0;
#X connect 8 0 0 0;
#X connect 12 0 4 0;
#X connect 13 0 7 1;
#X connect 14 0 7 0;
#X connect 16 0 1 1;
#X connect 16 0 3 0;
#X connect 17 0 12 0;
#X restore 157 37 pd editread;
#N canvas 10 8 456 306 note 0;
#X obj 55 149 noteout;
#X obj 55 58 inlet;
#X obj 55 118 makenote 127 250;
#X obj 203 58 r \$1_chan;
#X obj 101 58 r \$1_vol_snd;
#X obj 281 58 r \$1_note;
#X obj 55 88 f;
#X connect 1 0 6 0;
#X connect 2 0 0 0;
#X connect 2 1 0 1;
#X connect 3 0 0 2;
#X connect 4 0 2 1;
#X connect 5 0 6 1;
#X connect 6 0 2 0;
#X restore 44 99 pd note;
#X obj 44 35 r clock;
#X connect 2 0 4 0;
#X connect 5 0 2 0;
